<svg width="99" height="99" xmlns="http://www.w3.org/2000/svg"><g fill-rule="nonzero" fill="none"><path fill="#99CA3C" d="M0 0h99.699v99.699H0z"/><path fill="#C9DA2B" d="M73.968 25.167l10.211 3.288-10.185 3.596z"/><path fill="#FFF" d="M21.442 25.122h4.84v16.436h.09l13.122-16.436h5.73L35.013 37.705 46.3 57.013h-5.769l-8.654-15.59-5.596 5.872v9.718h-4.84zM48.538 25.122h11.539c2.506 0 4.699.314 7.167 2.237a9.5 9.5 0 013.448 7.615c0 4.526-3.448 9.616-9.993 9.616h-7.32v12.423h-4.84V25.122zm4.84 14.872h7.167a5.051 5.051 0 005.327-5.129c0-2.147-.853-3.448-2.058-4.256a5.622 5.622 0 00-3.449-.891h-6.987v10.276zM73.98 30.212h4.866v26.84h-4.833zM21.442 62.18h2.468v1.282h.052a3.936 3.936 0 013.205-1.45 4.333 4.333 0 013.455 1.597 4.808 4.808 0 013.846-1.596 4.115 4.115 0 014.09 4.256v8.148h-2.462v-7.282c0-1.667-1.038-2.635-2.417-2.635-1.378 0-2.442.968-2.442 2.635v7.3H28.77v-7.3c0-1.667-1.038-2.635-2.416-2.635-1.379 0-2.443.968-2.443 2.635v7.3h-2.468V62.18zM43.154 69.23c0 2.007 1.237 3.026 2.93 3.026a3.846 3.846 0 002.679-1.185l1.788 1.519a5.635 5.635 0 01-4.423 1.987c-2.513 0-5.442-1.212-5.442-6.244 0-4.762 2.686-6.307 5.058-6.307a4.974 4.974 0 015.05 5.173v2.032h-7.64zm5.173-2.031c-.07-1.86-1.135-2.853-2.564-2.853-1.43 0-2.564.994-2.564 2.853h5.128zM60.103 73.154a4.333 4.333 0 01-3.167 1.43 4 4 0 01-3.289-1.597c-.68-.872-.871-1.673-.871-4.692 0-3.02.192-3.795.871-4.667a4 4 0 013.289-1.596 4.526 4.526 0 013.167 1.43v-6.244h2.468v17.218h-2.468v-1.282zm-4.86-4.86c0 1.924.122 3.847 2.443 3.847 2.32 0 2.417-2.032 2.417-3.846S59.98 64.5 57.686 64.5s-2.442 1.91-2.442 3.795zM64.795 57.218h2.461v2.468h-2.461v-2.468zm0 4.961h2.461v12.257h-2.461V62.179zM76.346 73.346h-.064c-.506.846-1.353 1.237-3.026 1.237-2.73 0-4.327-1.621-4.327-3.75 0-1.961 1.36-3.628 3.994-3.628h3.404v-1.282c0-1.16-.744-1.57-2.513-1.57-1.282 0-1.885.243-2.32.942L69.57 63.82c.942-1.283 2.3-1.789 4.134-1.789 3.026 0 5.128 1.013 5.128 4.039v8.365h-2.487v-1.09zm0-4.109h-2.949c-1.448 0-2.128.584-2.128 1.475 0 .89.641 1.55 2.32 1.55 2.058 0 2.757-.217 2.757-2.127v-.898z"/></g></svg>