<?xml version="1.0" encoding="UTF-8"?>
<svg width="219px" height="42px" viewBox="0 0 219 42" version="1.1" xmlns="http://www.w3.org/2000/svg" xmlns:xlink="http://www.w3.org/1999/xlink">
    <title>KPI Media_logo</title>
    <g id="Page-1" stroke="none" stroke-width="1" fill="none" fill-rule="evenodd">
        <g id="KPI-Media-Brandboard" transform="translate(-49.000000, -396.000000)">
            <g id="Brand-Suite" transform="translate(-2.000000, 319.000000)">
                <g id="KPI-Media_logo" transform="translate(51.000000, 77.000000)">
                    <g>
                        <polygon id="Path" fill="#6DA324" fill-rule="nonzero" points="68.0297872 0 80.1446809 4.4561647 68.0694525 9.33333333"></polygon>
                        <g id="KPI_Media_CAPS" fill-rule="nonzero">
                            <polygon id="Path" fill="#99CA3C" points="0 0 6.25159101 0 6.25159101 21.4224929 6.36267555 21.4224929 23.3215819 0 30.7272178 0 17.5328431 16.4046117 32.0910891 41.5625 24.6854532 41.5625 13.4844288 21.2481744 6.25159101 28.8932838 6.25159101 41.5625 0 41.5625"></polygon>
                            <path d="M35.1267327,0 L50.0480409,0 C53.2851016,0 56.1152175,0.410893499 59.2967857,2.91983411 C61.7631176,4.84356276 63.7485149,8.34860882 63.7485149,12.8435347 C63.7485149,18.7392338 59.2967857,25.3322068 50.8557646,25.3322068 L41.3727183,25.3322068 L41.3727183,41.5625 L35.1267327,41.5625 L35.1267327,0 Z M41.3727183,19.3804767 L50.6214631,19.3804767 C55.2458355,19.3804767 57.4963634,15.9376872 57.4963634,12.6692162 C57.4963634,9.86766964 56.3988457,8.17429037 54.8388907,7.12215398 C53.5201302,6.25447938 51.9575537,5.84365544 50.3871616,5.95173008 L41.3727183,5.95173008 L41.3727183,19.3804767 Z" id="Shape" fill="#99CA3C"></path>
                            <polygon id="Path" fill="#99CA3C" points="68.0851485 6.5625 74.1564356 6.5625 74.1564356 41.5625 68.0851485 41.5625"></polygon>
                            <path d="M81.5287129,11.7323846 L87.4673339,11.7323846 L87.4673339,14.9136779 L87.5790321,14.9136779 C89.4500131,12.5827777 92.2943471,11.2748298 95.2613861,11.3809991 C99.3942196,11.3809991 101.466842,13.0877285 103.582902,15.2650634 C106.027852,12.5606503 108.876156,11.3809991 112.891086,11.3809991 C117.489328,11.3809991 122.726733,14.9701506 122.726733,21.7343206 L122.726733,41.5625 L116.788112,41.5625 L116.788112,23.7924354 C116.788112,19.7326785 114.305929,17.3796508 110.9736,17.3796508 C107.64127,17.3796508 105.097033,19.7326785 105.097033,23.7924354 L105.097033,41.5625 L99.1894395,41.5625 L99.1894395,23.7924354 C99.1894395,19.7326785 96.7072573,17.3796508 93.3749276,17.3796508 C90.042598,17.3796508 87.4983612,19.7326785 87.4983612,23.7924354 L87.4983612,41.5625 L81.5597401,41.5625 L81.5287129,11.7323846 Z" id="Path" fill="#ACACAC"></path>
                            <path d="M133.421144,29.1438025 C133.421144,33.9697701 136.3832,36.4137691 140.448283,36.4137691 C142.888638,36.3494798 145.205774,35.3267694 146.899122,33.5665723 L151.199682,37.2263678 C148.552705,40.33704 144.647033,42.0890806 140.566021,41.9965079 C134.524169,41.9965079 127.49703,39.0934837 127.49703,26.9913466 C127.49703,15.5343259 133.941672,11.8125 139.636506,11.8125 C146.143116,11.8125 151.782178,16.6384676 151.782178,24.2620076 L151.782178,29.1438025 L133.421144,29.1438025 Z M145.858064,24.2620076 C145.678358,19.7772074 143.125288,17.3952388 139.661293,17.3952388 C136.197297,17.3952388 133.563669,19.7772074 133.464521,24.2620076 L145.858064,24.2620076 Z" id="Shape" fill="#ACACAC"></path>
                            <path d="M174.088066,38.5474497 C172.147081,40.717641 169.39658,41.9685146 166.502272,41.9973185 C163.415827,42.0707492 160.484475,40.632359 158.632551,38.1357112 C157.0154,36.0333499 156.552475,34.1056655 156.552475,26.7879509 C156.552475,19.4702363 157.0154,17.6049365 158.632551,15.5025752 C160.486486,13.0083938 163.4165,11.5706604 166.502272,11.640968 C169.514369,11.640968 171.884544,13.0446217 174.088066,15.1532214 L174.088066,0 L179.970297,0 L179.970297,41.6479647 L174.069549,41.6479647 L174.088066,38.5474497 Z M162.453223,26.7879509 C162.453223,31.4106504 162.743323,36.0333499 168.29842,36.0333499 C173.853518,36.0333499 174.088066,31.1174428 174.088066,26.7879509 C174.088066,22.4584591 173.797967,17.6049365 168.29842,17.6049365 C162.798874,17.6049365 162.453223,22.227636 162.453223,26.7879509 Z" id="Shape" fill="#ACACAC"></path>
                            <path d="M185.174257,0 L191.245545,0 L191.245545,5.95173008 L185.174257,5.95173008 L185.174257,0 Z M185.174257,11.9657167 L191.245545,11.9657167 L191.245545,41.5625 L185.174257,41.5625 L185.174257,11.9657167 Z" id="Shape" fill="#ACACAC"></path>
                            <path d="M213.05273,39.0364295 L212.934159,39.0364295 C211.686044,41.0700092 209.657856,42 205.620203,42 C199.011432,42 195.148515,38.1064387 195.148515,32.9914895 C195.148515,28.2857363 198.424818,24.2743762 204.802687,24.2743762 L213.05273,24.2743762 L213.05273,21.174407 C213.05273,18.3782348 211.236722,17.3924445 206.968168,17.3924445 C203.847879,17.3924445 202.406306,17.9752388 201.351648,19.661622 L196.671216,16.1152572 C198.949026,12.9780884 202.225329,11.8125 206.656139,11.8125 C214.007538,11.8310998 219,14.2738755 219,21.5402033 L219,41.6528035 L213.027768,41.6528035 L213.05273,39.0364295 Z M213.05273,29.1537277 L205.894788,29.1537277 C202.387584,29.1537277 200.746312,30.5487138 200.746312,32.7000924 C200.746312,34.6778728 202.325178,36.4200555 206.362832,36.4200555 C211.355293,36.4200555 213.034008,35.8992606 213.034008,31.3051063 L213.05273,29.1537277 Z" id="Shape" fill="#ACACAC"></path>
                        </g>
                    </g>
                </g>
            </g>
        </g>
    </g>
</svg>