<svg xmlns="http://www.w3.org/2000/svg" viewBox="0 0 354.04 67.32"><defs><style>.cls-1{fill:#8ac140;}.cls-2{fill:#99ca3c;}.cls-3{fill:#acacac;}</style></defs><g id="Layer_2" data-name="Layer 2"><g id="Layer_1-2" data-name="Layer 1"><polygon class="cls-1" points="109.95 0.1 131.33 6.98 110.02 14.51 109.95 0.1"/><g id="KPI_Media_CAPS" data-name="KPI Media CAPS"><path class="cls-2" d="M0,0H10.13V34.41h.18L37.79,0h12L28.41,26.35,52,66.76H40L21.85,34.13,10.13,46.41V66.76H0Z"/><path class="cls-2" d="M56.72,0h24.2c5.25,0,9.84.66,15,4.69,4,3.09,7.22,8.72,7.22,15.94,0,9.47-7.22,20.06-20.91,20.06H66.85V66.76H56.72ZM66.85,31.13h15C89.35,31.13,93,25.6,93,20.35c0-4.5-1.78-7.22-4.31-8.91a11.76,11.76,0,0,0-7.22-1.88H66.85Z"/><path class="cls-2" d="M110,10.66h10.13V66.78H110Z"/><path class="cls-3" d="M131.54,19.22h9.57v5.07h.18a15.25,15.25,0,0,1,12.38-5.63c6.66,0,10,2.72,13.41,6.19,3.94-4.31,8.53-6.19,15-6.19,7.41,0,15.85,5.72,15.85,16.5v31.6h-9.57V38.44c0-6.47-4-10.22-9.37-10.22s-9.47,3.75-9.47,10.22V66.76H160V38.44c0-6.47-4-10.22-9.37-10.22s-9.47,3.75-9.47,10.22V66.76h-9.57Z"/><path class="cls-3" d="M215.74,46.6c0,7.78,4.78,11.72,11.34,11.72a15,15,0,0,0,10.41-4.59l6.94,5.9a21.89,21.89,0,0,1-17.16,7.69c-9.75,0-21.09-4.68-21.09-24.19,0-18.47,10.4-24.47,19.59-24.47,10.5,0,19.6,7.78,19.6,20.07V46.6Zm20.07-7.87c-.29-7.23-4.41-11.07-10-11.07s-9.84,3.84-10,11.07Z"/><path class="cls-3" d="M281.47,61.79a16.79,16.79,0,0,1-12.29,5.53,15.48,15.48,0,0,1-12.75-6.19c-2.62-3.37-3.37-6.46-3.37-18.19s.75-14.72,3.37-18.09a15.51,15.51,0,0,1,12.75-6.19c4.88,0,8.72,2.25,12.29,5.63V0H291V66.76h-9.56ZM262.62,42.94c0,7.41.47,14.82,9.47,14.82s9.38-7.88,9.38-14.82-.47-14.72-9.38-14.72S262.62,35.63,262.62,42.94Z"/><path class="cls-3" d="M299.65,0h9.57V9.56h-9.57Zm0,19.22h9.57V66.76h-9.57Z"/><path class="cls-3" d="M344.47,62.54h-.19c-2,3.28-5.25,4.78-11.72,4.78-10.59,0-16.78-6.28-16.78-14.53,0-7.59,5.25-14.06,15.47-14.06h13.22v-5c0-4.51-2.91-6.1-9.75-6.1-5,0-7.31.94-9,3.66l-7.5-5.72c3.65-5.06,8.9-6.94,16-6.94C346,18.66,354,22.6,354,34.32V66.76h-9.57Zm0-15.94H333c-5.62,0-8.25,2.25-8.25,5.72,0,3.19,2.53,6,9,6,8,0,10.69-.84,10.69-8.25Z"/></g></g></g></svg>