<?xml version="1.0" encoding="UTF-8"?>
<svg width="354px" height="68px" viewBox="0 0 354 68" version="1.1" xmlns="http://www.w3.org/2000/svg" xmlns:xlink="http://www.w3.org/1999/xlink">
    <title>kpimedia_logo</title>
    <g id="Pages" stroke="none" stroke-width="1" fill="none" fill-rule="evenodd">
        <g id="Index" transform="translate(-335.000000, -2836.000000)" fill-rule="nonzero">
            <g id="About" transform="translate(0.000000, 2642.000000)">
                <g id="kpimedia_logo" transform="translate(335.000000, 194.000000)">
                    <g>
                        <polygon id="Path" fill="#8AC140" points="109.95 0.1 131.33 6.98 110.02 14.51"></polygon>
                        <g id="KPI_Media_CAPS">
                            <polygon id="Path" fill="#99CA3C" points="0 0 10.13 0 10.13 34.41 10.31 34.41 37.79 0 49.79 0 28.41 26.35 52 66.76 40 66.76 21.85 34.13 10.13 46.41 10.13 66.76 0 66.76"></polygon>
                            <path d="M56.72,0 L80.92,0 C86.17,0 90.76,0.66 95.92,4.69 C99.92,7.78 103.14,13.41 103.14,20.63 C103.14,30.1 95.92,40.69 82.23,40.69 L66.85,40.69 L66.85,66.76 L56.72,66.76 L56.72,0 Z M66.85,31.13 L81.85,31.13 C89.35,31.13 93,25.6 93,20.35 C93,15.85 91.22,13.13 88.69,11.44 C86.5511791,10.0462928 84.0169274,9.38640451 81.47,9.56 L66.85,9.56 L66.85,31.13 Z" id="Shape" fill="#99CA3C"></path>
                            <polygon id="Path" fill="#99CA3C" points="110 10.66 120.13 10.66 120.13 66.78 110 66.78"></polygon>
                            <path d="M131.54,19.22 L141.11,19.22 L141.11,24.29 L141.29,24.29 C144.305058,20.5752642 148.88866,18.4907989 153.67,18.66 C160.33,18.66 163.67,21.38 167.08,24.85 C171.02,20.54 175.61,18.66 182.08,18.66 C189.49,18.66 197.93,24.38 197.93,35.16 L197.93,66.76 L188.36,66.76 L188.36,38.44 C188.36,31.97 184.36,28.22 178.99,28.22 C173.62,28.22 169.52,31.97 169.52,38.44 L169.52,66.76 L160,66.76 L160,38.44 C160,31.97 156,28.22 150.63,28.22 C145.26,28.22 141.16,31.97 141.16,38.44 L141.16,66.76 L131.59,66.76 L131.54,19.22 Z" id="Path" fill="#FFFFFF"></path>
                            <path d="M215.74,46.6 C215.74,54.38 220.52,58.32 227.08,58.32 C231.018108,58.2163585 234.75737,56.5676348 237.49,53.73 L244.43,59.63 C240.158459,64.644752 233.855706,67.4692375 227.27,67.32 C217.52,67.32 206.18,62.64 206.18,43.13 C206.18,24.66 216.58,18.66 225.77,18.66 C236.27,18.66 245.37,26.44 245.37,38.73 L245.37,46.6 L215.74,46.6 Z M235.81,38.73 C235.52,31.5 231.4,27.66 225.81,27.66 C220.22,27.66 215.97,31.5 215.81,38.73 L235.81,38.73 Z" id="Shape" fill="#FFFFFF"></path>
                            <path d="M281.47,61.79 C278.325346,65.2687288 273.869166,67.2738286 269.18,67.32 C264.179546,67.4377064 259.430364,65.1320251 256.43,61.13 C253.81,57.76 253.06,54.67 253.06,42.94 C253.06,31.21 253.81,28.22 256.43,24.85 C259.433624,20.8519281 264.180637,18.5472998 269.18,18.66 C274.06,18.66 277.9,20.91 281.47,24.29 L281.47,0 L291,0 L291,66.76 L281.44,66.76 L281.47,61.79 Z M262.62,42.94 C262.62,50.35 263.09,57.76 272.09,57.76 C281.09,57.76 281.47,49.88 281.47,42.94 C281.47,36 281,28.22 272.09,28.22 C263.18,28.22 262.62,35.63 262.62,42.94 Z" id="Shape" fill="#FFFFFF"></path>
                            <path d="M299.65,0 L309.22,0 L309.22,9.56 L299.65,9.56 L299.65,0 Z M299.65,19.22 L309.22,19.22 L309.22,66.76 L299.65,66.76 L299.65,19.22 Z" id="Shape" fill="#FFFFFF"></path>
                            <path d="M344.47,62.54 L344.28,62.54 C342.28,65.82 339.03,67.32 332.56,67.32 C321.97,67.32 315.78,61.04 315.78,52.79 C315.78,45.2 321.03,38.73 331.25,38.73 L344.47,38.73 L344.47,33.73 C344.47,29.22 341.56,27.63 334.72,27.63 C329.72,27.63 327.41,28.57 325.72,31.29 L318.22,25.57 C321.87,20.51 327.12,18.63 334.22,18.63 C346,18.66 354,22.6 354,34.32 L354,66.76 L344.43,66.76 L344.47,62.54 Z M344.47,46.6 L333,46.6 C327.38,46.6 324.75,48.85 324.75,52.32 C324.75,55.51 327.28,58.32 333.75,58.32 C341.75,58.32 344.44,57.48 344.44,50.07 L344.47,46.6 Z" id="Shape" fill="#FFFFFF"></path>
                        </g>
                    </g>
                </g>
            </g>
        </g>
    </g>
</svg>