<?xml version="1.0" encoding="UTF-8"?>
<svg width="141px" height="23px" viewBox="0 0 141 23" version="1.1" xmlns="http://www.w3.org/2000/svg" xmlns:xlink="http://www.w3.org/1999/xlink">
    <title>stars</title>
    <g id="Pages" stroke="none" stroke-width="1" fill="none" fill-rule="evenodd">
        <g id="Index" transform="translate(-446.000000, -2219.000000)" fill="#8BC140">
            <g id="Reviews" transform="translate(0.000000, 2094.000000)">
                <g id="stars" transform="translate(446.000000, 125.000000)">
                    <g id="Group">
                        <polygon id="Star" points="12.5 18.75 5.15268435 22.6127124 6.55589677 14.4313562 0.611793546 8.63728757 8.82634217 7.44364379 12.5 0 16.1736578 7.44364379 24.3882065 8.63728757 18.4441032 14.4313562 19.8473157 22.6127124"></polygon>
                        <polygon id="Star" points="41.5 18.75 34.1526843 22.6127124 35.5558968 14.4313562 29.6117935 8.63728757 37.8263422 7.44364379 41.5 0 45.1736578 7.44364379 53.3882065 8.63728757 47.4441032 14.4313562 48.8473157 22.6127124"></polygon>
                        <polygon id="Star" points="70.5 18.75 63.1526843 22.6127124 64.5558968 14.4313562 58.6117935 8.63728757 66.8263422 7.44364379 70.5 0 74.1736578 7.44364379 82.3882065 8.63728757 76.4441032 14.4313562 77.8473157 22.6127124"></polygon>
                        <polygon id="Star" points="99.5 18.75 92.1526843 22.6127124 93.5558968 14.4313562 87.6117935 8.63728757 95.8263422 7.44364379 99.5 0 103.173658 7.44364379 111.388206 8.63728757 105.444103 14.4313562 106.847316 22.6127124"></polygon>
                        <polygon id="Star" points="128.5 18.75 121.152684 22.6127124 122.555897 14.4313562 116.611794 8.63728757 124.826342 7.44364379 128.5 0 132.173658 7.44364379 140.388206 8.63728757 134.444103 14.4313562 135.847316 22.6127124"></polygon>
                    </g>
                </g>
            </g>
        </g>
    </g>
</svg>