<?xml version="1.0" encoding="UTF-8"?>
<svg width="249px" height="195px" viewBox="0 0 249 195" version="1.1" xmlns="http://www.w3.org/2000/svg" xmlns:xlink="http://www.w3.org/1999/xlink">
    <!-- Generator: Sketch 64 (93537) - https://sketch.com -->
    <title>Icon</title>
    <desc>Created with Sketch.</desc>
    <g id="General" stroke="none" stroke-width="1" fill="none" fill-rule="evenodd">
        <g id="Artboard" transform="translate(0.000000, -9.000000)" fill="#FFE800">
            <g id="Icon" transform="translate(-1.000000, 9.000000)">
                <path d="M191.666667,67.8773433 C191.666667,66.885377 191.635696,65.8844336 191.542784,64.8745132 C189.941156,46.2470915 173.747898,32.4179141 155.439784,34.0427639 C138.374923,35.5598888 125,50.3810325 125,67.7965497 C125,68.788516 125.039819,69.7804823 125.132732,70.7993798 C126.729935,89.4133359 142.936466,103.238025 161.249005,101.608686 C178.313866,100.09605 191.666667,85.2793948 191.666667,67.8773433 Z M249.965338,127.816415 C250.266868,134.374647 248.603886,139.807668 244.866745,144.421499 C241.074781,149.110658 235.738619,151.991949 229.831378,152.519244 C229.173495,152.57574 228.524749,152.608696 227.880572,152.608696 C222.695175,152.608696 217.660543,150.701959 213.685833,147.25571 L187.379652,124.285422 C180.30741,128.197763 172.686932,130.542342 164.710101,131.272081 C162.946609,131.432152 161.178548,131.512188 159.433331,131.512188 C145.530984,131.512188 131.971285,126.394602 121.257844,117.101028 C109.077871,106.522172 101.599021,91.6920008 100.228432,75.3411483 C100.073098,73.5238638 100,71.7207032 100,69.9269587 C100,38.3457554 123.866532,11.4584191 154.325601,8.71836841 C156.093661,8.55829672 157.875427,8.47826087 159.638919,8.47826087 C173.536697,8.47826087 187.082691,13.586431 197.782426,22.8705892 C209.976104,33.4588608 217.450386,48.2984483 218.811838,64.6398848 C218.962603,66.4195054 219.035701,68.199126 219.035701,69.9552066 C219.035701,76.5605179 218.007759,83.0810854 215.965581,89.3662533 L242.143841,112.228257 C247.032277,116.352457 249.672946,121.606575 249.965338,127.816415 Z M180.564218,132.770219 C174.416604,135.23823 167.98222,136.785341 161.33276,137.393134 C159.271606,137.577314 157.179087,137.674009 155.108972,137.674009 C138.624225,137.674009 122.56067,131.628304 109.871133,120.655787 C106.205864,117.483288 102.91698,113.98387 100,110.217391 L100,195 L183.333333,158.338993 L183.333333,135.178371 L180.564218,132.770219 Z M0,155.568159 L83.3333333,195 L83.3333333,79.3403825 L0,42.3913043 L0,155.568159 Z M87.2703552,67.826087 L8.33333333,33.0841381 L95.1867019,0 L116.666667,7.95268678 C98.9854392,21.7389456 87.5060433,43.6268539 87.2703552,67.826087 L87.2703552,67.826087 Z" id="Fill-1"></path>
            </g>
        </g>
    </g>
</svg>