<svg width="24" height="24" xmlns="http://www.w3.org/2000/svg"><path d="M16.771 9.491c.005.108.008.217.008.327 0 3.335-2.476 7.182-7.005 7.182A6.846 6.846 0 016 15.866a4.861 4.861 0 003.645-1.046c-1.078-.02-1.987-.75-2.3-1.752a2.424 2.424 0 001.112-.044c-1.127-.231-1.975-1.252-1.975-2.475v-.032c.332.19.712.303 1.115.316a2.542 2.542 0 01-1.095-2.101c0-.463.121-.897.333-1.27C8.05 8.99 9.864 9.995 11.91 10.1a2.593 2.593 0 01-.064-.575C11.846 8.13 12.95 7 14.308 7c.709 0 1.348.307 1.797.798a4.853 4.853 0 001.564-.613 2.527 2.527 0 01-1.083 1.397A4.845 4.845 0 0018 8.184c-.33.506-.748.95-1.229 1.307M12 0C5.372 0 0 5.372 0 12c0 6.627 5.372 12 12 12s12-5.373 12-12c0-6.628-5.372-12-12-12" fill="#8AC140" fill-rule="evenodd"/></svg>