<svg width="24" height="24" xmlns="http://www.w3.org/2000/svg"><g fill="#90C33F" fill-rule="evenodd"><path d="M12.5 15a2.5 2.5 0 100-5 2.5 2.5 0 000 5M14.293 10h1.414A.293.293 0 0016 9.708V8.292A.293.293 0 0015.707 8h-1.414a.293.293 0 00-.293.292v1.416c0 .16.131.292.293.292"/><path d="M18 16.576c0 .787-.638 1.424-1.427 1.424H7.427A1.425 1.425 0 016 16.576V7.423C6 6.637 6.639 6 7.426 6h9.147C17.363 6 18 6.637 18 7.423v9.153zM12 0C5.372 0 0 5.372 0 12c0 6.627 5.372 12 12 12s12-5.373 12-12c0-6.628-5.372-12-12-12z"/><path d="M16.038 12.04c0 2.17-1.587 3.935-3.538 3.935-1.95 0-3.538-1.766-3.538-3.935 0-.36.044-.709.126-1.04H8v5.638c0 .2.145.362.325.362h8.35c.18 0 .325-.162.325-.362V11h-1.088c.082.331.126.68.126 1.04"/></g></svg>