<svg xmlns="http://www.w3.org/2000/svg" xmlns:xlink="http://www.w3.org/1999/xlink" viewBox="0 0 155.53 155.53"><defs><style>.cls-1{fill:none;}.cls-2{clip-path:url(#clip-path);}.cls-3{fill:#99ca3c;}.cls-4{fill:#c9da2b;}.cls-5{fill:#fff;}</style><clipPath id="clip-path" transform="translate(0.34 0)"><circle class="cls-1" cx="77.59" cy="77.59" r="77.59"/></clipPath></defs><g id="Layer_2" data-name="Layer 2"><g id="KPI_Media_Icon_-_Circle_CAPS" data-name="KPI Media Icon - Circle CAPS"><g class="cls-2"><rect class="cls-3" width="155.53" height="155.53"/><polygon class="cls-4" points="115.39 39.26 131.32 44.39 115.43 50 115.39 39.26"/><path class="cls-5" d="M33.1,39.18h7.55V64.83h.14L61.26,39.18h8.95L54.28,58.82,71.89,88.94h-9L49.39,64.62l-8.74,9.15V88.94H33.1Z" transform="translate(0.34 0)"/><path class="cls-5" d="M75.38,39.18h18c3.92,0,7.34.49,11.19,3.5A14.81,14.81,0,0,1,110,54.56c0,7-5.38,15-15.59,15H82.92V88.94H75.38Zm7.54,23.2H94.1a7.88,7.88,0,0,0,8.32-8c0-3.36-1.33-5.38-3.22-6.64a8.74,8.74,0,0,0-5.38-1.4H82.92Z" transform="translate(0.34 0)"/><path class="cls-5" d="M115.06,47.13h7.55V89h-7.55Z" transform="translate(0.34 0)"/><path class="cls-5" d="M33.11,97H37v2H37a6.14,6.14,0,0,1,5-2.26,6.77,6.77,0,0,1,5.4,2.49,7.47,7.47,0,0,1,6-2.49,6.42,6.42,0,0,1,6.38,6.64v12.71H56V104.73c0-2.61-1.62-4.12-3.77-4.12s-3.81,1.51-3.81,4.12v11.39H44.54V104.73c0-2.61-1.62-4.12-3.77-4.12S37,102.12,37,104.73v11.39H33.11Z" transform="translate(0.34 0)"/><path class="cls-5" d="M67,108c0,3.13,1.92,4.71,4.56,4.71a6,6,0,0,0,4.19-1.85l2.79,2.38a8.79,8.79,0,0,1-6.9,3.09c-3.92,0-8.49-1.88-8.49-9.73,0-7.43,4.19-9.84,7.89-9.84a7.76,7.76,0,0,1,7.88,8.07V108Zm8.07-3.17c-.11-2.91-1.77-4.45-4-4.45s-4,1.54-4,4.45Z" transform="translate(0.34 0)"/><path class="cls-5" d="M93.42,114.12a6.75,6.75,0,0,1-4.94,2.22,6.21,6.21,0,0,1-5.13-2.49c-1.06-1.35-1.36-2.6-1.36-7.31s.3-5.93,1.36-7.28a6.21,6.21,0,0,1,5.13-2.49A7,7,0,0,1,93.42,99V89.26h3.85v26.86H93.42Zm-7.58-7.58c0,3,.19,6,3.81,6s3.77-3.17,3.77-6-.19-5.93-3.77-5.93S85.84,103.59,85.84,106.54Z" transform="translate(0.34 0)"/><path class="cls-5" d="M100.73,89.26h3.85v3.85h-3.85Zm0,7.73h3.85v19.13h-3.85Z" transform="translate(0.34 0)"/><path class="cls-5" d="M118.76,114.42h-.07c-.79,1.32-2.11,1.92-4.72,1.92-4.26,0-6.75-2.52-6.75-5.84,0-3.06,2.11-5.66,6.22-5.66h5.32v-2c0-1.81-1.17-2.45-3.92-2.45-2,0-2.94.38-3.62,1.47l-3-2.3c1.47-2,3.59-2.79,6.45-2.79,4.72,0,8,1.58,8,6.3v13.05h-3.85Zm0-6.41h-4.6c-2.26,0-3.32.9-3.32,2.3s1,2.41,3.62,2.41c3.21,0,4.3-.34,4.3-3.32Z" transform="translate(0.34 0)"/></g></g></g></svg>