<?xml version="1.0" encoding="UTF-8"?>
<svg width="351px" height="352px" viewBox="0 0 351 352" version="1.1" xmlns="http://www.w3.org/2000/svg" xmlns:xlink="http://www.w3.org/1999/xlink">
    <title>Triangle Copy</title>
    <defs>
        <polygon id="path-1" points="0.0549494949 0.644243119 271.585982 0.644243119 271.585982 316 0.0549494949 316"></polygon>
    </defs>
    <g id="Posts" stroke="none" stroke-width="1" fill="none" fill-rule="evenodd">
        <g id="Cover" transform="translate(-80.000000, 0.000000)">
            <g id="Triangle-Copy" transform="translate(55.674817, -49.000000)">
                <polygon id="Triangle" fill="#E7E7E7" transform="translate(199.825183, 200.500000) scale(1, -1) translate(-199.825183, -200.500000) " points="199.825183 0 399.325183 401 0.325183374 401"></polygon>
                <path d="M286.325183,173.617128 C280.413775,167.446465 274.553545,164.361134 268.744493,164.361134 C260.030915,164.361134 254.312062,158.151608 251.588896,155.352798 C249.773452,153.486924 249.773452,147.256446 251.588896,136.661362 L230.475165,130.048124 L208.507484,115.151288 C198.737856,107.198059 190.806149,101.831514 184.712363,99.0516532 C178.618578,96.2717923 171.82813,94.9223894 164.341018,95.0034447 L146.531785,99.0516532 L131.613394,111.685247 L146.531785,115.151288 L164.341018,122.671882 L166.938198,130.048124 L160.447617,136.661362 L135.977288,145.820592 L122.006197,149.391328 L108.146895,155.352798 L98.1626641,167.92711 L83.4132084,179.473705 L71.417237,183.545708 C65.2072493,183.545708 60.2381363,183.545708 56.5098981,183.545708 C52.7816598,183.545708 49.0534216,182.188374 45.3251834,179.473705 L56.5098981,194.170669 L71.417237,204.797217 C80.7061178,208.932406 89.6212601,211 98.1626641,211 C106.704068,211 115.335547,208.932406 124.0571,204.797217 L146.531785,197.108459 L172.464113,183.545708 L197.466509,173.617128 C204.478438,172.166973 210.179384,171.261202 214.569347,170.899815 C218.95931,170.538428 224.26125,170.538428 230.475165,170.899815 L239.064015,173.617128 L246.03772,179.473705 L261.121888,183.545708 L278.433789,185.877552 L286.325183,185.877552 L281.580403,179.631396 L286.325183,173.617128 Z" id="Path-2" fill="#02D4C5"></path>
                <g id="PL_cyan" transform="translate(41.325183, 45.000000)">
                    <g>
                        <mask id="mask-2" fill="white">
                            <use xlink:href="#path-1"></use>
                        </mask>
                        <g id="Clip-2"></g>
                        <path d="M244.041697,142.178081 L241.609266,138.438139 L247.359731,129.635803 L243.290721,126.824682 C243.290721,126.824682 241.193481,122.37237 239.222626,123.100266 C237.250855,123.828162 232.75965,122.332185 232.75965,122.332185 L225.234316,120.458104 L218.474613,117.836948 C218.474613,117.836948 209.396956,115.964694 207.349172,93.8602197 C191.153724,87.3091561 192.88097,88.6425665 192.88097,88.6425665 L173.210882,74.9038728 L148.578855,58.4901387 L122.718707,53.4268324 L91.4881616,61.279341 L88.546532,66.533526 L103.191488,68.7966705 L118.211933,74.3969942 L124.647434,82.2613757 L118.067232,88.5402775 L114.457051,93.495815 L101.493549,96.2886705 L90.2435556,102.483549 L78.5823569,103.111896 L69.3948013,109.902243 L55.1253333,123.100266 L43.1087946,130.978347 L35.5990303,136.35674 L21.3286465,138.438139 L10.4394882,136.939422 L3.01214815,133.036913 L4.80624916,138.438139 L19.1041077,156.96615 L42.7333064,164.029572 L56.6272862,166.896405 L71.2722424,164.029572 L92.3014141,158.32148 L114.832539,146.966486 L143.988741,133.036913 L165.475825,126.295884 L188.268875,126.07578 L195.568916,129.635803 L209.396956,136.939422 C209.396956,136.939422 225.450451,136.875491 226.360781,139.676566 C227.272027,142.477642 244.041697,142.178081 244.041697,142.178081" id="Fill-1" fill="#7C1E92" mask="url(#mask-2)"></path>
                        <path d="M253.111111,101.084382 C253.427987,108.425445 254.143246,115.80578 255.362209,123.100266 C257.579421,121.709318 259.400081,120.194162 260.18769,119.255295 C260.221576,119.21511 260.250882,119.175838 260.278357,119.142046 C260.919434,117.535561 261.356283,116.031364 261.605387,114.617584 C262.235475,111.043861 261.611798,108.261052 260.238976,106.157734 C258.843259,104.008751 256.665428,102.487202 254.250397,101.502671 C253.876741,101.35015 253.496673,101.214983 253.111111,101.084382 Z M37.9114882,166.607803 C45.87367,173.427376 54.0400808,179.603075 65.1664377,182.363965 C70.2593401,183.624312 75.0738316,184.354035 79.7408754,184.093746 C84.3172525,183.83985 88.7983838,182.623341 93.3234747,179.999445 C101.047542,175.526127 109.247838,167.834358 118.01503,159.617445 C125.716202,152.401503 133.836822,144.783711 142.576539,138.438139 C134.988929,141.492197 127.338128,144.980983 119.688242,148.470682 C91.6621684,161.252243 63.6296835,174.02741 37.9114882,166.613283 L37.9114882,166.607803 Z M235.366088,176.809306 C235.070276,177.929919 233.953886,178.658728 232.785293,178.455064 C231.55534,178.240439 230.726519,177.070509 230.942653,175.836647 C231.520539,172.590798 230.562586,169.107491 229.644013,165.775792 C227.732687,158.814659 225.968808,152.412462 234.646249,147.33911 C236.307556,146.366451 238.031138,145.676913 239.749226,144.992855 C239.964444,144.907919 240.175084,144.822983 240.390303,144.738046 C236.540175,143.867676 232.394236,143.244809 228.202505,142.617376 C218.386694,141.146971 208.343758,139.642775 200.426451,134.762127 C198.135057,133.348347 196.649589,132.239607 195.475502,131.362844 C195.294168,131.227676 195.123825,131.103468 194.959892,130.978347 C187.195529,143.692324 187.989549,157.429191 188.795475,171.465618 C189.203017,178.602104 189.622465,185.81348 188.965818,193.160023 C188.863246,194.274243 188.783569,195.025884 188.699313,195.783919 C188.313751,199.216994 187.921778,202.767884 188.795475,206.047526 C190.559354,212.67622 195.731017,214.553954 200.6087,216.317526 C201.872539,216.776 203.120808,217.228081 204.316875,217.749572 C204.220714,216.754081 204.129131,215.75859 204.033886,214.763098 C202.757226,201.410728 201.452175,187.775237 202.597872,171.589827 C202.689455,170.345006 203.772875,169.407052 205.020229,169.497468 C206.267582,169.587884 207.209051,170.668312 207.118384,171.91222 C205.995582,187.775237 207.277737,201.196104 208.536081,214.343896 C208.763205,216.725769 208.989414,219.100335 209.204633,221.475815 C209.216539,221.566231 209.228444,221.656647 209.228444,221.747977 C209.994074,230.365827 210.555475,239.053087 210.236768,248.440844 C210.129616,252.976266 209.415273,258.926382 208.637737,265.446393 C206.67604,281.819029 204.272,301.934347 209.851205,307.697237 C210.191892,305.565607 210.696512,303.637642 211.292714,302.086867 C212.438411,299.113179 214.144593,297.235445 216.152081,297.167861 C216.305024,297.161468 216.424081,297.161468 216.515663,297.167861 C216.827044,297.18978 217.12835,297.251884 217.41134,297.354173 C219.923448,270.039353 223.751596,252.303168 227.585239,234.574289 C229.660498,224.959121 231.742168,215.34578 233.596714,204.238289 C233.800943,203.010821 234.96862,202.179723 236.199488,202.383387 C237.430357,202.587052 238.263758,203.751503 238.059529,204.978971 C236.33503,215.288243 234.441104,224.258624 232.529778,233.120324 C234.078438,242.61585 235.172848,253.932486 236.238869,264.954127 C237.3113,276.067098 238.359919,286.880509 239.828902,295.23259 C240.905912,301.352578 242.04062,305.938231 243.293468,307.844277 C243.299879,306.481642 243.38963,305.220382 243.560889,304.118035 C244.048108,300.961688 245.324768,298.767954 247.263569,298.281168 C247.371636,298.252855 247.490694,298.230936 247.626236,298.213584 C248.539313,298.088462 249.40202,298.320439 250.195125,298.85837 C250.099879,292.252509 249.894734,285.726104 249.696,279.234405 C248.947771,255.046705 248.216027,231.230717 252.80431,204.006312 C253.007623,202.778844 254.177131,201.947746 255.407084,202.152324 C256.637953,202.355075 257.471354,203.520439 257.267125,204.746994 C256.444714,209.639514 255.792646,214.417873 255.288027,219.117688 C260.493576,213.512798 266.312727,201.630832 267.015165,185.97148 C267.54268,174.174451 265.133145,160.285064 257.335811,145.394705 C256.682828,144.144405 256.167219,143.160786 255.861333,142.52696 C255.815542,142.436543 255.776162,142.351607 255.73037,142.261191 C255.055407,142.645688 254.419825,143.035665 253.797064,143.442994 C252.735623,144.138925 251.754774,144.840335 250.717145,145.614809 C252.100956,155.280208 247.389037,160.641249 242.500364,166.194081 C239.692444,169.38422 236.823165,172.652902 235.382572,176.826659 L235.366088,176.809306 Z M246.29371,146.971965 C244.728566,147.859688 243.079165,148.521827 241.434343,149.177572 C239.851798,149.810486 238.274747,150.444312 236.931232,151.225179 C231.243044,154.550486 232.564579,159.362636 234.004256,164.588509 C234.333953,165.775792 234.662734,166.981341 234.940229,168.202416 C236.238869,166.437931 237.667556,164.808613 239.079758,163.20304 C243.10664,158.621954 246.991569,154.19978 246.29371,146.966486 L246.29371,146.971965 Z M125.86365,64.0868092 C125.092525,63.9790405 124.55402,63.2611908 124.661172,62.4921965 C124.769239,61.7232023 125.489993,61.1852717 126.260202,61.2930405 C131.256943,62.0054104 136.808673,63.3570867 142.264242,65.7216069 C146.778343,67.6778844 151.219178,70.3191329 155.205764,73.848104 C155.790061,74.3632023 155.846842,75.2564046 155.324822,75.8390867 C154.809212,76.4208555 153.91262,76.4774798 153.329239,75.957815 C149.574357,72.6379884 145.394532,70.1492601 141.141441,68.3062312 C135.957872,66.0604393 130.649751,64.7717803 125.858155,64.0868092 L125.86365,64.0868092 Z M247.359731,133.036913 L244.031623,136.35674 L247.359731,139.676566 L250.688754,136.35674 L247.359731,133.036913 Z M250.887488,130.158208 L255.503246,134.762127 C256.093037,135.350289 256.291771,136.186867 256.093037,136.939422 L256.190114,136.893757 C256.609562,136.691006 257.256135,136.390532 257.896296,136.090971 C262.603636,133.908197 266.975785,131.883422 263.499313,122.332185 C262.087111,123.926798 258.826774,126.505029 255.339313,128.331618 C253.886815,129.089653 252.379367,129.734439 250.887488,130.152728 L250.887488,130.158208 Z M239.216215,134.762127 L244.041697,129.949064 C243.946451,129.898832 243.854869,129.853168 243.765118,129.796543 C243.481212,129.633064 243.202801,129.440358 242.925306,129.208382 C238.64932,125.662971 233.381495,124.559711 228.356364,123.502116 C217.104539,121.138509 206.891259,118.995006 206.500202,95.5534682 C193.184108,92.2226821 181.831542,84.0897919 170.483556,75.957815 C149.109118,60.6427746 127.729185,45.3286474 93.6641616,65.2859653 C102.017401,66.0668324 112.434909,68.7135607 119.166222,72.6206358 C122.569428,74.5942659 125.143811,76.9414335 126.277603,79.6283468 C127.553347,82.6422197 127.105508,85.8433179 124.207838,89.1229595 C119.642451,94.2976879 108.147933,99.9418497 85.821037,105.55222 C73.3383434,108.691214 65.6032862,116.077029 58.1741145,123.168763 C46.2482424,134.552983 35.0586936,145.230312 7.82114478,138.975156 C39.471138,180.089861 78.6409697,162.235861 117.810801,144.376382 C133.820337,137.075503 149.823461,129.779191 165.475825,126.295884 C165.504215,126.290405 165.532606,126.284925 165.566492,126.278532 C172.002909,124.853792 178.377051,124.067445 184.66602,124.198046 C193.649347,124.384358 194.602721,125.091249 198.186343,127.771769 C199.286249,128.591908 200.676471,129.626671 202.803017,130.939075 C209.908902,135.316497 219.497589,136.75311 228.878384,138.16141 C233.250532,138.817156 237.57231,139.461942 241.666963,140.406289 L239.222626,137.968705 C238.337939,137.086462 238.337939,135.655329 239.222626,134.767607 L239.216215,134.762127 Z M258.401832,2.72618497 C258.497077,1.48227746 259.592404,0.554369942 260.839758,0.651179191 C262.087111,0.747075145 263.017589,1.83846243 262.921428,3.08236994 C262.479084,8.50003468 261.271111,15.8018266 259.836013,24.4598613 C256.665428,43.6317457 252.384862,69.5720578 252.957253,96.3507746 C253.955502,96.6110636 254.964741,96.9389364 255.951084,97.3407861 C259.161051,98.6467977 262.093522,100.728197 264.027744,103.708277 C265.989441,106.728543 266.913508,110.596347 266.062707,115.403931 C266.006842,115.726324 265.938155,116.054197 265.863973,116.382069 C274.161347,133.523699 267.265185,136.718405 259.779232,140.191665 L259.751758,140.208104 C259.802128,140.315873 259.853414,140.423642 259.909279,140.535977 C260.403825,141.543341 260.828768,142.36896 261.316902,143.295954 C269.533684,158.990012 272.068687,173.659353 271.512781,186.152312 C270.707771,204.102208 263.454438,217.664636 257.403582,223.364509 C256.682828,224.037607 255.639704,224.156335 254.811798,223.727087 C253.081805,243.022266 253.632215,260.955723 254.193616,279.103803 C254.488512,288.729017 254.788902,298.417249 254.755017,308.449792 C254.902465,309.184994 254.741279,316 248.805818,316 C248.805818,316 243.854869,314.608139 243.656135,313.229064 C239.544997,312.346821 237.05029,305.696208 235.343192,296.007977 C233.868714,287.63215 232.808189,276.65526 231.712862,265.372416 C231.090101,258.914509 230.454519,252.354312 229.72369,246.127468 C226.382761,262.132046 223.252471,279.635341 221.255973,305.32815 C221.250478,305.435006 221.233077,305.543688 221.211098,305.645064 C221.244983,306.075225 221.267879,306.515434 221.285279,306.973908 C221.329239,308.26896 221.301764,309.626116 221.199192,311.011584 C219.623973,319.619387 209.335596,313.567896 209.352081,312.850046 C198.980364,307.749295 201.827663,283.989931 204.112646,264.903896 C204.889266,258.411283 205.59903,252.484 205.694276,248.315723 L205.694276,248.28741 C205.989172,239.483249 205.490963,231.23711 204.782114,223.064948 C203.154694,222.053017 201.12431,221.317815 199.043556,220.56526 C193.088862,218.410798 186.765091,216.114775 184.39402,207.201931 C183.30602,203.10215 183.747448,199.131145 184.178801,195.291653 C184.286869,194.318081 184.39402,193.351815 184.445306,192.774613 C185.069899,185.796127 184.660525,178.720832 184.258478,171.719514 C183.418667,157.13511 182.597172,142.860312 190.785562,129.117965 C189.401751,128.880509 187.50233,128.76178 184.564364,128.699676 C178.683852,128.575468 172.677872,129.31615 166.581226,130.667827 C149.682424,136.124763 134.710519,150.155711 121.105939,162.90896 C112.140013,171.313098 103.758384,179.173827 95.5800673,183.912913 C90.3974141,186.915827 85.2477306,188.312254 79.9789899,188.606335 C74.8018316,188.894936 69.5614815,188.114069 64.0720269,186.751434 C50.0928754,183.284566 40.7532929,175.124277 31.0785185,166.669908 C28.3163906,164.255156 25.5203771,161.817572 22.560431,159.447572 C14.8757441,154.335861 7.46397306,146.87059 0.386478114,136.436197 C-0.311380471,135.401434 -0.0384646465,133.998613 0.998249158,133.297202 C1.6173468,132.884393 2.36008081,132.811329 3.01214815,133.036913 C32.2232997,141.667549 43.2315152,131.165572 55.0209293,119.905561 C62.8814545,112.401017 71.0698451,104.58504 84.7028148,101.157445 C106.026882,95.8018844 116.767677,90.6783006 120.782653,86.125526 C122.364283,84.3336416 122.671084,82.7435954 122.086788,81.3645202 C121.366949,79.6621387 119.466613,78.0163815 116.869333,76.512185 C108.521589,71.6708092 94.0488081,68.9227052 86.3540471,69.6515145 C85.5316364,69.764763 84.6753401,69.4195376 84.1762155,68.6843353 C83.472862,67.655052 83.739367,66.2531445 84.7715017,65.5462543 C125.183192,37.9483121 149.143003,55.117341 173.102815,72.2872832 C183.657697,79.8484509 194.210747,87.4096185 206.10365,90.7696301 L195.974626,3.26868208 C195.833589,2.03025434 196.722855,0.910554913 197.971125,0.769907514 C199.212983,0.628346821 200.335785,1.51606936 200.477737,2.75997688 L210.980418,93.4949017 C210.996902,93.6364624 210.996902,93.7771098 210.991407,93.9131908 C210.941037,115.228578 219.645953,117.060647 229.263946,119.079942 C234.827582,120.244393 240.651313,121.471861 245.800081,125.741514 C245.857778,125.787179 245.931044,125.83741 246.016215,125.888555 C247.156418,126.550694 249.077818,126.166197 251.142088,125.317746 C249.560458,116.387549 248.743542,107.345017 248.471542,98.3929017 C248.460552,98.2906127 248.460552,98.1947168 248.465131,98.093341 C247.660121,70.3310058 252.095461,43.4847052 255.362209,23.7365318 C256.768,15.2246243 257.953993,8.04795376 258.389926,2.72618497 L258.401832,2.72618497 L258.401832,2.72618497 Z" id="Fill-3" fill="#0B0B09" mask="url(#mask-2)"></path>
                    </g>
                </g>
            </g>
        </g>
    </g>
</svg>